<?xml version="1.0" encoding="utf-8"?>
<svg version="1.1" xmlns:xlink="http://www.w3.org/1999/xlink" width="6px" height="6px" xmlns="http://www.w3.org/2000/svg">
  <g transform="matrix(1 0 0 1 -1298 -1461 )">
    <path d="M 1301 1461  C 1302.68 1461  1304 1462.32  1304 1464  C 1304 1465.68  1302.68 1467  1301 1467  C 1299.32 1467  1298 1465.68  1298 1464  C 1298 1462.32  1299.32 1461  1301 1461  Z " fill-rule="nonzero" fill="#1e87f0" stroke="none" />
    <path d="M 1301 1461.5  C 1302.4 1461.5  1303.5 1462.6  1303.5 1464  C 1303.5 1465.4  1302.4 1466.5  1301 1466.5  C 1299.6 1466.5  1298.5 1465.4  1298.5 1464  C 1298.5 1462.6  1299.6 1461.5  1301 1461.5  Z " stroke-width="1" stroke="#1e87f0" fill="none" />
  </g>
</svg>