<?xml version="1.0" encoding="utf-8"?>
<svg version="1.1" xmlns:xlink="http://www.w3.org/1999/xlink" width="96px" height="96px" xmlns="http://www.w3.org/2000/svg">
  <g transform="matrix(1 0 0 1 -34 -52 )">
    <path d="M 82 52  C 108.88 52  130 73.12  130 100  C 130 126.88  108.88 148  82 148  C 55.12 148  34 126.88  34 100  C 34 73.12  55.12 52  82 52  Z " fill-rule="nonzero" fill="#ffffff" stroke="none" />
    <path d="M 82 52.5  C 108.6 52.5  129.5 73.4  129.5 100  C 129.5 126.6  108.6 147.5  82 147.5  C 55.4 147.5  34.5 126.6  34.5 100  C 34.5 73.4  55.4 52.5  82 52.5  Z " stroke-width="1" stroke="#797979" fill="none" />
  </g>
</svg>