<?xml version="1.0" encoding="utf-8"?>
<svg version="1.1" xmlns:xlink="http://www.w3.org/1999/xlink" width="12px" height="12px" xmlns="http://www.w3.org/2000/svg">
  <g transform="matrix(1 0 0 1 -334 -152 )">
    <path d="M 340 152  C 343.36 152  346 154.64  346 158  C 346 161.36  343.36 164  340 164  C 336.64 164  334 161.36  334 158  C 334 154.64  336.64 152  340 152  Z " fill-rule="nonzero" fill="#ffffff" stroke="none" />
    <path d="M 340 152.5  C 343.08 152.5  345.5 154.92  345.5 158  C 345.5 161.08  343.08 163.5  340 163.5  C 336.92 163.5  334.5 161.08  334.5 158  C 334.5 154.92  336.92 152.5  340 152.5  Z " stroke-width="1" stroke="#000000" fill="none" />
  </g>
</svg>