<?xml version="1.0" encoding="utf-8"?>
<svg version="1.1" xmlns:xlink="http://www.w3.org/1999/xlink" width="4px" height="4px" xmlns="http://www.w3.org/2000/svg">
  <g transform="matrix(1 0 0 1 -338 -156 )">
    <path d="M 340 156  C 341.12 156  342 156.88  342 158  C 342 159.12  341.12 160  340 160  C 338.88 160  338 159.12  338 158  C 338 156.88  338.88 156  340 156  Z " fill-rule="nonzero" fill="#000000" stroke="none" />
    <path d="M 340 156.5  C 340.84 156.5  341.5 157.16  341.5 158  C 341.5 158.84  340.84 159.5  340 159.5  C 339.16 159.5  338.5 158.84  338.5 158  C 338.5 157.16  339.16 156.5  340 156.5  Z " stroke-width="1" stroke="#000000" fill="none" />
  </g>
</svg>