<?xml version="1.0" encoding="utf-8"?>
<svg version="1.1" xmlns:xlink="http://www.w3.org/1999/xlink" width="36px" height="36px" xmlns="http://www.w3.org/2000/svg">
  <g transform="matrix(1 0 0 1 -25 -190 )">
    <path d="M 43 190  C 53.08 190  61 197.92  61 208  C 61 218.08  53.08 226  43 226  C 32.92 226  25 218.08  25 208  C 25 197.92  32.92 190  43 190  Z " fill-rule="nonzero" fill="#ffffff" stroke="none" />
    <path d="M 43 190.5  C 52.8 190.5  60.5 198.2  60.5 208  C 60.5 217.8  52.8 225.5  43 225.5  C 33.2 225.5  25.5 217.8  25.5 208  C 25.5 198.2  33.2 190.5  43 190.5  Z " stroke-width="1" stroke="#797979" fill="none" />
  </g>
</svg>