<?xml version="1.0" encoding="utf-8"?>
<svg version="1.1" xmlns:xlink="http://www.w3.org/1999/xlink" width="199px" height="199px" xmlns="http://www.w3.org/2000/svg">
  <g transform="matrix(1 0 0 1 -94 -367 )">
    <path d="M 193.5 367  C 249.22 367  293 410.78  293 466.5  C 293 522.22  249.22 566  193.5 566  C 137.78 566  94 522.22  94 466.5  C 94 410.78  137.78 367  193.5 367  Z " fill-rule="nonzero" fill="#ffffff" stroke="none" />
    <path d="M 193.5 367.5  C 248.94 367.5  292.5 411.06  292.5 466.5  C 292.5 521.94  248.94 565.5  193.5 565.5  C 138.06 565.5  94.5 521.94  94.5 466.5  C 94.5 411.06  138.06 367.5  193.5 367.5  Z " stroke-width="1" stroke="#797979" fill="none" />
  </g>
</svg>