<?xml version="1.0" encoding="utf-8"?>
<svg version="1.1" xmlns:xlink="http://www.w3.org/1999/xlink" width="20px" height="20px" xmlns="http://www.w3.org/2000/svg">
  <g transform="matrix(1 0 0 1 -824 -2375 )">
    <path d="M 834 2375  C 839.6 2375  844 2379.4  844 2385  C 844 2390.6  839.6 2395  834 2395  C 828.4 2395  824 2390.6  824 2385  C 824 2379.4  828.4 2375  834 2375  Z " fill-rule="nonzero" fill="#e21f0c" stroke="none" />
    <path d="M 834 2375.5  C 839.32 2375.5  843.5 2379.68  843.5 2385  C 843.5 2390.32  839.32 2394.5  834 2394.5  C 828.68 2394.5  824.5 2390.32  824.5 2385  C 824.5 2379.68  828.68 2375.5  834 2375.5  Z " stroke-width="1" stroke="#e21f0c" fill="none" />
  </g>
</svg>