<?xml version="1.0" encoding="utf-8"?>
<svg version="1.1" xmlns:xlink="http://www.w3.org/1999/xlink" width="633px" height="556px" xmlns="http://www.w3.org/2000/svg">
  <g transform="matrix(1 0 0 1 -244 -1199 )">
    <path d="M 244 1199  L 877 1199  L 877 1755  L 244 1755  L 244 1199  " fill-rule="nonzero" fill="#cccccc" stroke="none" />
    <path d="M 283 1238  L 838 1238  L 838 1716  L 283 1716  L 283 1238  " fill-rule="nonzero" fill="#ffffff" stroke="none" />
    <path d="M 614.86 1365.8  C 591.508 1365.8  573.16 1347.452  573.16 1324.1  C 573.16 1300.748  591.508 1282.4  614.86 1282.4  C 638.212 1282.4  656.56 1300.748  656.56 1324.1  C 656.56 1347.452  638.212 1365.8  614.86 1365.8  " fill-rule="nonzero" fill="#cccccc" stroke="none" />
    <path d="M 297 1702  L 297 1454.5  L 428.75 1342  L 613.2 1464.84360189573  L 718.6 1409.5  L 824 1464.84360189573  L 824 1702  L 297 1702  " fill-rule="nonzero" fill="#169bd5" stroke="none" />
  </g>
</svg>