<?xml version="1.0" encoding="utf-8"?>
<svg version="1.1" xmlns:xlink="http://www.w3.org/1999/xlink" width="45px" height="45px" xmlns="http://www.w3.org/2000/svg">
  <g transform="matrix(1 0 0 1 -276 -1799 )">
    <path d="M 276 1799  L 321 1799  L 321 1844  L 276 1844  L 276 1799  " fill-rule="nonzero" fill="#cccccc" stroke="none" />
    <path d="M 279 1802  L 318 1802  L 318 1841  L 279 1841  L 279 1802  " fill-rule="nonzero" fill="#ffffff" stroke="none" />
    <path d="M 302.775 1812.5  C 300.885 1812.5  299.4 1811.015  299.4 1809.125  C 299.4 1807.235  300.885 1805.75  302.775 1805.75  C 304.665 1805.75  306.15 1807.235  306.15 1809.125  C 306.15 1811.015  304.665 1812.5  302.775 1812.5  " fill-rule="nonzero" fill="#cccccc" stroke="none" />
    <path d="M 280 1840  L 280 1819.65  L 289.25 1810.4  L 302.2 1817.8  L 309.6 1815.95  L 317 1817.8  L 317 1840  L 280 1840  " fill-rule="nonzero" fill="#169bd5" stroke="none" />
    <path d="M 277.5 1842.5  L 277.5 1800.5  L 319.5 1800.5  L 319.5 1842.5  L 277.5 1842.5  Z " stroke-width="3" stroke="#0099ff" fill="none" />
  </g>
</svg>