<?xml version="1.0" encoding="utf-8"?>
<svg version="1.1" xmlns:xlink="http://www.w3.org/1999/xlink" width="23px" height="23px" xmlns="http://www.w3.org/2000/svg">
  <g transform="matrix(1 0 0 1 -1514 -350 )">
    <path d="M 1525.5 350  C 1531.94 350  1537 355.06  1537 361.5  C 1537 367.94  1531.94 373  1525.5 373  C 1519.06 373  1514 367.94  1514 361.5  C 1514 355.06  1519.06 350  1525.5 350  Z " fill-rule="nonzero" fill="#ffffff" stroke="none" fill-opacity="0.0235294117647059" />
    <path d="M 1525.5 350.5  C 1531.66 350.5  1536.5 355.34  1536.5 361.5  C 1536.5 367.66  1531.66 372.5  1525.5 372.5  C 1519.34 372.5  1514.5 367.66  1514.5 361.5  C 1514.5 355.34  1519.34 350.5  1525.5 350.5  Z " stroke-width="1" stroke="#999999" fill="none" />
  </g>
</svg>