<?xml version="1.0" encoding="utf-8"?>
<svg version="1.1" xmlns:xlink="http://www.w3.org/1999/xlink" width="40px" height="40px" xmlns="http://www.w3.org/2000/svg">
  <g transform="matrix(1 0 0 1 -1885 -90 )">
    <path d="M 1905 90  C 1916.2 90  1925 98.8  1925 110  C 1925 121.2  1916.2 130  1905 130  C 1893.8 130  1885 121.2  1885 110  C 1885 98.8  1893.8 90  1905 90  Z " fill-rule="nonzero" fill="#8bbee6" stroke="none" />
    <path d="M 1905 90.4960217983651  C 1915.92222779292 90.4960217983651  1924.50397820163 99.0777722070845  1924.50397820163 110  C 1924.50397820163 120.922227792916  1915.92222779292 129.503978201635  1905 129.503978201635  C 1894.07777220708 129.503978201635  1885.49602179837 120.922227792916  1885.49602179837 110  C 1885.49602179837 99.0777722070845  1894.07777220708 90.4960217983651  1905 90.4960217983651  Z " stroke-width="0.992043596730245" stroke="#ffffff" fill="none" />
  </g>
</svg>