<?xml version="1.0" encoding="utf-8"?>
<svg version="1.1" xmlns:xlink="http://www.w3.org/1999/xlink" width="6px" height="6px" xmlns="http://www.w3.org/2000/svg">
  <g transform="matrix(1 0 0 1 -559 -1346 )">
    <path d="M 562 1346  C 563.68 1346  565 1347.32  565 1349  C 565 1350.68  563.68 1352  562 1352  C 560.32 1352  559 1350.68  559 1349  C 559 1347.32  560.32 1346  562 1346  Z " fill-rule="nonzero" fill="#e62000" stroke="none" />
    <path d="M 562 1346.5  C 563.4 1346.5  564.5 1347.6  564.5 1349  C 564.5 1350.4  563.4 1351.5  562 1351.5  C 560.6 1351.5  559.5 1350.4  559.5 1349  C 559.5 1347.6  560.6 1346.5  562 1346.5  Z " stroke-width="1" stroke="#e62000" fill="none" />
  </g>
</svg>