<?xml version="1.0" encoding="utf-8"?>
<svg version="1.1" xmlns:xlink="http://www.w3.org/1999/xlink" width="60px" height="60px" xmlns="http://www.w3.org/2000/svg">
  <g transform="matrix(1 0 0 1 -69 -358 )">
    <path d="M 99 358  C 115.8 358  129 371.2  129 388  C 129 404.8  115.8 418  99 418  C 82.2 418  69 404.8  69 388  C 69 371.2  82.2 358  99 358  Z " fill-rule="nonzero" fill="#ffffff" stroke="none" />
    <path d="M 99 358.5  C 115.52 358.5  128.5 371.48  128.5 388  C 128.5 404.52  115.52 417.5  99 417.5  C 82.48 417.5  69.5 404.52  69.5 388  C 69.5 371.48  82.48 358.5  99 358.5  Z " stroke-width="1" stroke="#d9d9d9" fill="none" />
  </g>
</svg>