<?xml version="1.0" encoding="utf-8"?>
<svg version="1.1" xmlns:xlink="http://www.w3.org/1999/xlink" width="430px" height="430px" xmlns="http://www.w3.org/2000/svg">
  <g transform="matrix(1 0 0 1 -897 -670 )">
    <path d="M 1112 670  C 1232.4 670  1327 764.6  1327 885  C 1327 1005.4  1232.4 1100  1112 1100  C 991.6 1100  897 1005.4  897 885  C 897 764.6  991.6 670  1112 670  Z " fill-rule="nonzero" fill="#000000" stroke="none" fill-opacity="0.00784313725490196" />
    <path d="M 1112 670.5  C 1232.12 670.5  1326.5 764.88  1326.5 885  C 1326.5 1005.12  1232.12 1099.5  1112 1099.5  C 991.88 1099.5  897.5 1005.12  897.5 885  C 897.5 764.88  991.88 670.5  1112 670.5  Z " stroke-width="1" stroke="#797979" fill="none" />
  </g>
</svg>