<?xml version="1.0" encoding="utf-8"?>
<svg version="1.1" xmlns:xlink="http://www.w3.org/1999/xlink" width="280px" height="280px" xmlns="http://www.w3.org/2000/svg">
  <g transform="matrix(1 0 0 1 -972 -745 )">
    <path d="M 1112 745  C 1190.4 745  1252 806.6  1252 885  C 1252 963.4  1190.4 1025  1112 1025  C 1033.6 1025  972 963.4  972 885  C 972 806.6  1033.6 745  1112 745  Z " fill-rule="nonzero" fill="#000000" stroke="none" fill-opacity="0.00784313725490196" />
    <path d="M 1112 745.5  C 1190.12 745.5  1251.5 806.88  1251.5 885  C 1251.5 963.12  1190.12 1024.5  1112 1024.5  C 1033.88 1024.5  972.5 963.12  972.5 885  C 972.5 806.88  1033.88 745.5  1112 745.5  Z " stroke-width="1" stroke="#797979" fill="none" />
  </g>
</svg>