<?xml version="1.0" encoding="utf-8"?>
<svg version="1.1" xmlns:xlink="http://www.w3.org/1999/xlink" width="220px" height="220px" xmlns="http://www.w3.org/2000/svg">
  <g transform="matrix(1 0 0 1 -1002 -775 )">
    <path d="M 1112 775  C 1173.6 775  1222 823.4  1222 885  C 1222 946.6  1173.6 995  1112 995  C 1050.4 995  1002 946.6  1002 885  C 1002 823.4  1050.4 775  1112 775  Z " fill-rule="nonzero" fill="#000000" stroke="none" fill-opacity="0.00784313725490196" />
    <path d="M 1112 775.5  C 1173.32 775.5  1221.5 823.68  1221.5 885  C 1221.5 946.32  1173.32 994.5  1112 994.5  C 1050.68 994.5  1002.5 946.32  1002.5 885  C 1002.5 823.68  1050.68 775.5  1112 775.5  Z " stroke-width="1" stroke="#797979" fill="none" />
  </g>
</svg>