<?xml version="1.0" encoding="utf-8"?>
<svg version="1.1" xmlns:xlink="http://www.w3.org/1999/xlink" width="18px" height="18px" xmlns="http://www.w3.org/2000/svg">
  <g transform="matrix(1 0 0 1 -29 -339 )">
    <path d="M 38 339  C 43.04 339  47 342.96  47 348  C 47 353.04  43.04 357  38 357  C 32.96 357  29 353.04  29 348  C 29 342.96  32.96 339  38 339  Z " fill-rule="nonzero" fill="#ffffff" stroke="none" fill-opacity="0" />
    <path d="M 38 339.5  C 42.76 339.5  46.5 343.24  46.5 348  C 46.5 352.76  42.76 356.5  38 356.5  C 33.24 356.5  29.5 352.76  29.5 348  C 29.5 343.24  33.24 339.5  38 339.5  Z " stroke-width="1" stroke="#1e87f0" fill="none" />
  </g>
</svg>