<?xml version="1.0" encoding="utf-8"?>
<svg version="1.1" xmlns:xlink="http://www.w3.org/1999/xlink" width="241px" height="44px" xmlns="http://www.w3.org/2000/svg">
  <g transform="matrix(1 0 0 1 -71 -383 )">
    <path d="M 72 386  A 2 2 0 0 1 74 384 L 309 384  A 2 2 0 0 1 311 386 L 311 424  A 2 2 0 0 1 309 426 L 74 426  A 2 2 0 0 1 72 424 L 72 386  Z " fill-rule="nonzero" fill="#ffffff" stroke="none" />
    <path d="M 71.5 386  A 2.5 2.5 0 0 1 74 383.5 L 309 383.5  A 2.5 2.5 0 0 1 311.5 386 L 311.5 424  A 2.5 2.5 0 0 1 309 426.5 L 74 426.5  A 2.5 2.5 0 0 1 71.5 424 L 71.5 386  Z " stroke-width="1" stroke="#d8d8d8" fill="none" stroke-opacity="0.968627450980392" />
  </g>
</svg>