<?xml version="1.0" encoding="utf-8"?>
<svg version="1.1" xmlns:xlink="http://www.w3.org/1999/xlink" width="12px" height="12px" xmlns="http://www.w3.org/2000/svg">
  <g transform="matrix(1 0 0 1 -334 -185 )">
    <path d="M 340 185  C 343.36 185  346 187.64  346 191  C 346 194.36  343.36 197  340 197  C 336.64 197  334 194.36  334 191  C 334 187.64  336.64 185  340 185  Z " fill-rule="nonzero" fill="#ffffff" stroke="none" />
    <path d="M 340 185.5  C 343.08 185.5  345.5 187.92  345.5 191  C 345.5 194.08  343.08 196.5  340 196.5  C 336.92 196.5  334.5 194.08  334.5 191  C 334.5 187.92  336.92 185.5  340 185.5  Z " stroke-width="1" stroke="#000000" fill="none" />
  </g>
</svg>