<?xml version="1.0" encoding="utf-8"?>
<svg version="1.1" xmlns:xlink="http://www.w3.org/1999/xlink" width="12px" height="12px" xmlns="http://www.w3.org/2000/svg">
  <g transform="matrix(1 0 0 1 -334 -165 )">
    <path d="M 340 165  C 343.36 165  346 167.64  346 171  C 346 174.36  343.36 177  340 177  C 336.64 177  334 174.36  334 171  C 334 167.64  336.64 165  340 165  Z " fill-rule="nonzero" fill="#ffffff" stroke="none" />
    <path d="M 340 165.5  C 343.08 165.5  345.5 167.92  345.5 171  C 345.5 174.08  343.08 176.5  340 176.5  C 336.92 176.5  334.5 174.08  334.5 171  C 334.5 167.92  336.92 165.5  340 165.5  Z " stroke-width="1" stroke="#000000" fill="none" />
  </g>
</svg>