<?xml version="1.0" encoding="utf-8"?>
<svg version="1.1" xmlns:xlink="http://www.w3.org/1999/xlink" width="4px" height="4px" xmlns="http://www.w3.org/2000/svg">
  <g transform="matrix(1 0 0 1 -338 -169 )">
    <path d="M 340 169  C 341.12 169  342 169.88  342 171  C 342 172.12  341.12 173  340 173  C 338.88 173  338 172.12  338 171  C 338 169.88  338.88 169  340 169  Z " fill-rule="nonzero" fill="#000000" stroke="none" />
    <path d="M 340 169.5  C 340.84 169.5  341.5 170.16  341.5 171  C 341.5 171.84  340.84 172.5  340 172.5  C 339.16 172.5  338.5 171.84  338.5 171  C 338.5 170.16  339.16 169.5  340 169.5  Z " stroke-width="1" stroke="#000000" fill="none" />
  </g>
</svg>