<?xml version="1.0" encoding="utf-8"?>
<svg version="1.1" xmlns:xlink="http://www.w3.org/1999/xlink" width="4px" height="4px" xmlns="http://www.w3.org/2000/svg">
  <g transform="matrix(1 0 0 1 -338 -189 )">
    <path d="M 340 189  C 341.12 189  342 189.88  342 191  C 342 192.12  341.12 193  340 193  C 338.88 193  338 192.12  338 191  C 338 189.88  338.88 189  340 189  Z " fill-rule="nonzero" fill="#000000" stroke="none" />
    <path d="M 340 189.5  C 340.84 189.5  341.5 190.16  341.5 191  C 341.5 191.84  340.84 192.5  340 192.5  C 339.16 192.5  338.5 191.84  338.5 191  C 338.5 190.16  339.16 189.5  340 189.5  Z " stroke-width="1" stroke="#000000" fill="none" />
  </g>
</svg>