<?xml version="1.0" encoding="utf-8"?>
<svg version="1.1" xmlns:xlink="http://www.w3.org/1999/xlink" width="40px" height="40px" xmlns="http://www.w3.org/2000/svg">
  <g transform="matrix(1 0 0 1 -1773 -132 )">
    <path d="M 1793 132  C 1804.2 132  1813 140.8  1813 152  C 1813 163.2  1804.2 172  1793 172  C 1781.8 172  1773 163.2  1773 152  C 1773 140.8  1781.8 132  1793 132  Z " fill-rule="nonzero" fill="#8bbee6" stroke="none" />
    <path d="M 1793 132.496021798365  C 1803.92222779292 132.496021798365  1812.50397820163 141.077772207084  1812.50397820163 152  C 1812.50397820163 162.922227792916  1803.92222779292 171.503978201635  1793 171.503978201635  C 1782.07777220708 171.503978201635  1773.49602179837 162.922227792916  1773.49602179837 152  C 1773.49602179837 141.077772207084  1782.07777220708 132.496021798365  1793 132.496021798365  Z " stroke-width="0.992043596730245" stroke="#ffffff" fill="none" />
  </g>
</svg>