<?xml version="1.0" encoding="utf-8"?>
<svg version="1.1" xmlns:xlink="http://www.w3.org/1999/xlink" width="20px" height="20px" xmlns="http://www.w3.org/2000/svg">
  <defs>
    <mask fill="white" id="clip3942">
      <path d="M 39 226  C 37.89 226  37 225.11  37 224  L 37 208  C 37 206.89  37.89 206  39 206  L 55 206  C 56.11 206  57 206.89  57 208  L 57 224  C 57 225.11  56.11 226  55 226  " fill-rule="evenodd" />
    </mask>
  </defs>
  <g transform="matrix(1 0 0 1 -37 -206 )">
    <path d="M 37 206  L 57 206  L 57 226  L 37 226  L 37 206  " fill-rule="nonzero" fill="#cccccc" stroke="none" mask="url(#clip3942)" />
    <path d="M 38 207  L 56 207  L 56 225  L 38 225  L 38 207  " fill-rule="nonzero" fill="#ffffff" stroke="none" mask="url(#clip3942)" />
    <path d="M 48.9 212  C 48.06 212  47.4 211.34  47.4 210.5  C 47.4 209.66  48.06 209  48.9 209  C 49.74 209  50.4 209.66  50.4 210.5  C 50.4 211.34  49.74 212  48.9 212  " fill-rule="nonzero" fill="#cccccc" stroke="none" mask="url(#clip3942)" />
    <path d="M 39 225  L 39 215.65  L 43.25 211.4  L 49.2 214.8  L 52.6 213.95  L 56 214.8  L 56 225  L 39 225  " fill-rule="nonzero" fill="#169bd5" stroke="none" mask="url(#clip3942)" />
  </g>
</svg>