<?xml version="1.0" encoding="utf-8"?>
<svg version="1.1" xmlns:xlink="http://www.w3.org/1999/xlink" width="12px" height="12px" xmlns="http://www.w3.org/2000/svg">
  <g transform="matrix(1 0 0 1 -256 -1660 )">
    <path d="M 262 1660  C 265.36 1660  268 1662.64  268 1666  C 268 1669.36  265.36 1672  262 1672  C 258.64 1672  256 1669.36  256 1666  C 256 1662.64  258.64 1660  262 1660  Z " fill-rule="nonzero" fill="#1e87f0" stroke="none" />
    <path d="M 262 1660.5  C 265.08 1660.5  267.5 1662.92  267.5 1666  C 267.5 1669.08  265.08 1671.5  262 1671.5  C 258.92 1671.5  256.5 1669.08  256.5 1666  C 256.5 1662.92  258.92 1660.5  262 1660.5  Z " stroke-width="1" stroke="#1e87f0" fill="none" />
  </g>
</svg>