<?xml version="1.0" encoding="utf-8"?>
<svg version="1.1" xmlns:xlink="http://www.w3.org/1999/xlink" width="20px" height="20px" xmlns="http://www.w3.org/2000/svg">
  <g transform="matrix(1 0 0 1 -252 -1656 )">
    <path d="M 262 1656  C 267.6 1656  272 1660.4  272 1666  C 272 1671.6  267.6 1676  262 1676  C 256.4 1676  252 1671.6  252 1666  C 252 1660.4  256.4 1656  262 1656  Z " fill-rule="nonzero" fill="#ffffff" stroke="none" />
    <path d="M 262 1656.5  C 267.32 1656.5  271.5 1660.68  271.5 1666  C 271.5 1671.32  267.32 1675.5  262 1675.5  C 256.68 1675.5  252.5 1671.32  252.5 1666  C 252.5 1660.68  256.68 1656.5  262 1656.5  Z " stroke-width="1" stroke="#1e87f0" fill="none" />
  </g>
</svg>