<?xml version="1.0" encoding="utf-8"?>
<svg version="1.1" xmlns:xlink="http://www.w3.org/1999/xlink" width="12px" height="12px" xmlns="http://www.w3.org/2000/svg">
  <g transform="matrix(1 0 0 1 -138 -271 )">
    <path d="M 144 271  C 147.36 271  150 273.64  150 277  C 150 280.36  147.36 283  144 283  C 140.64 283  138 280.36  138 277  C 138 273.64  140.64 271  144 271  Z " fill-rule="nonzero" fill="#1e87f0" stroke="none" />
    <path d="M 144 271.5  C 147.08 271.5  149.5 273.92  149.5 277  C 149.5 280.08  147.08 282.5  144 282.5  C 140.92 282.5  138.5 280.08  138.5 277  C 138.5 273.92  140.92 271.5  144 271.5  Z " stroke-width="1" stroke="#1e87f0" fill="none" />
  </g>
</svg>