<?xml version="1.0" encoding="utf-8"?>
<svg version="1.1" xmlns:xlink="http://www.w3.org/1999/xlink" width="20px" height="20px" xmlns="http://www.w3.org/2000/svg">
  <g transform="matrix(1 0 0 1 -424 -1656 )">
    <path d="M 434 1656  C 439.6 1656  444 1660.4  444 1666  C 444 1671.6  439.6 1676  434 1676  C 428.4 1676  424 1671.6  424 1666  C 424 1660.4  428.4 1656  434 1656  Z " fill-rule="nonzero" fill="#ffffff" stroke="none" />
    <path d="M 434 1656.5  C 439.32 1656.5  443.5 1660.68  443.5 1666  C 443.5 1671.32  439.32 1675.5  434 1675.5  C 428.68 1675.5  424.5 1671.32  424.5 1666  C 424.5 1660.68  428.68 1656.5  434 1656.5  Z " stroke-width="1" stroke="#d8d8d8" fill="none" />
  </g>
</svg>