<?xml version="1.0" encoding="utf-8"?>
<svg version="1.1" xmlns:xlink="http://www.w3.org/1999/xlink" width="20px" height="20px" xmlns="http://www.w3.org/2000/svg">
  <g transform="matrix(1 0 0 1 -306 -267 )">
    <path d="M 316 267  C 321.6 267  326 271.4  326 277  C 326 282.6  321.6 287  316 287  C 310.4 287  306 282.6  306 277  C 306 271.4  310.4 267  316 267  Z " fill-rule="nonzero" fill="#ffffff" stroke="none" />
    <path d="M 316 267.5  C 321.32 267.5  325.5 271.68  325.5 277  C 325.5 282.32  321.32 286.5  316 286.5  C 310.68 286.5  306.5 282.32  306.5 277  C 306.5 271.68  310.68 267.5  316 267.5  Z " stroke-width="1" stroke="#d8d8d8" fill="none" />
  </g>
</svg>