<?xml version="1.0" encoding="utf-8"?>
<svg version="1.1" xmlns:xlink="http://www.w3.org/1999/xlink" width="361px" height="300px" xmlns="http://www.w3.org/2000/svg">
  <g transform="matrix(1 0 0 1 -1563 -1894 )">
    <path d="M 1565 1899  A 3 3 0 0 1 1568 1896 L 1919 1896  A 3 3 0 0 1 1922 1899 L 1922 2189  A 3 3 0 0 1 1919 2192 L 1568 2192  A 3 3 0 0 1 1565 2189 L 1565 1899  Z " fill-rule="nonzero" fill="#ffffff" stroke="none" fill-opacity="0" />
    <path d="M 1564 1899  A 4 4 0 0 1 1568 1895 L 1919 1895  A 4 4 0 0 1 1923 1899 L 1923 2189  A 4 4 0 0 1 1919 2193 L 1568 2193  A 4 4 0 0 1 1564 2189 L 1564 1899  Z " stroke-width="2" stroke="#1a3e6b" fill="none" stroke-opacity="0.996078431372549" />
  </g>
</svg>