<?xml version="1.0" encoding="utf-8"?>
<svg version="1.1" xmlns:xlink="http://www.w3.org/1999/xlink" width="15px" height="15px" xmlns="http://www.w3.org/2000/svg">
  <g transform="matrix(1 0 0 1 -1140 -1691 )">
    <path d="M 1147.5 1691  C 1151.7 1691  1155 1694.3  1155 1698.5  C 1155 1702.7  1151.7 1706  1147.5 1706  C 1143.3 1706  1140 1702.7  1140 1698.5  C 1140 1694.3  1143.3 1691  1147.5 1691  Z " fill-rule="nonzero" fill="#ffffff" stroke="none" />
    <path d="M 1147.5 1691.5  C 1151.42 1691.5  1154.5 1694.58  1154.5 1698.5  C 1154.5 1702.42  1151.42 1705.5  1147.5 1705.5  C 1143.58 1705.5  1140.5 1702.42  1140.5 1698.5  C 1140.5 1694.58  1143.58 1691.5  1147.5 1691.5  Z " stroke-width="1" stroke="#797979" fill="none" />
  </g>
</svg>