<?xml version="1.0" encoding="utf-8"?>
<svg version="1.1" xmlns:xlink="http://www.w3.org/1999/xlink" width="361px" height="592px" xmlns="http://www.w3.org/2000/svg">
  <g transform="matrix(1 0 0 1 -1563 -1268 )">
    <path d="M 1565 1273  A 3 3 0 0 1 1568 1270 L 1919 1270  A 3 3 0 0 1 1922 1273 L 1922 1855  A 3 3 0 0 1 1919 1858 L 1568 1858  A 3 3 0 0 1 1565 1855 L 1565 1273  Z " fill-rule="nonzero" fill="#ffffff" stroke="none" fill-opacity="0" />
    <path d="M 1564 1273  A 4 4 0 0 1 1568 1269 L 1919 1269  A 4 4 0 0 1 1923 1273 L 1923 1855  A 4 4 0 0 1 1919 1859 L 1568 1859  A 4 4 0 0 1 1564 1855 L 1564 1273  Z " stroke-width="2" stroke="#1a3e6b" fill="none" stroke-opacity="0.996078431372549" />
  </g>
</svg>