<?xml version="1.0" encoding="utf-8"?>
<svg version="1.1" xmlns:xlink="http://www.w3.org/1999/xlink" width="110px" height="75px" xmlns="http://www.w3.org/2000/svg">
  <defs>
    <filter x="530px" y="624px" width="110px" height="75px" filterUnits="userSpaceOnUse" id="filter766">
      <feOffset dx="2" dy="2" in="SourceAlpha" result="shadowOffsetInner" />
      <feGaussianBlur stdDeviation="2.5" in="shadowOffsetInner" result="shadowGaussian" />
      <feComposite in2="shadowGaussian" operator="atop" in="SourceAlpha" result="shadowComposite" />
      <feColorMatrix type="matrix" values="0 0 0 0 0  0 0 0 0 0  0 0 0 0 0  0 0 0 0.349019607843137 0  " in="shadowComposite" />
    </filter>
    <g id="widget767">
      <path d="M 534.5 632  A 3.5 3.5 0 0 1 538 628.5 L 628 628.5  A 3.5 3.5 0 0 1 631.5 632 L 631.5 687  A 3.5 3.5 0 0 1 628 690.5 L 538 690.5  A 3.5 3.5 0 0 1 534.5 687 L 534.5 632  Z " fill-rule="nonzero" fill="#ffffff" stroke="none" fill-opacity="0" />
      <path d="M 534 632  A 4 4 0 0 1 538 628 L 628 628  A 4 4 0 0 1 632 632 L 632 687  A 4 4 0 0 1 628 691 L 538 691  A 4 4 0 0 1 534 687 L 534 632  Z " stroke-width="2" stroke="#1a3e6b" fill="none" />
    </g>
  </defs>
  <g transform="matrix(1 0 0 1 -530 -624 )">
    <use xlink:href="#widget767" filter="url(#filter766)" />
    <use xlink:href="#widget767" />
  </g>
</svg>