<?xml version="1.0" encoding="utf-8"?>
<svg version="1.1" xmlns:xlink="http://www.w3.org/1999/xlink" width="220px" height="75px" xmlns="http://www.w3.org/2000/svg">
  <defs>
    <filter x="860px" y="549px" width="220px" height="75px" filterUnits="userSpaceOnUse" id="filter4043">
      <feOffset dx="2" dy="2" in="SourceAlpha" result="shadowOffsetInner" />
      <feGaussianBlur stdDeviation="2.5" in="shadowOffsetInner" result="shadowGaussian" />
      <feComposite in2="shadowGaussian" operator="atop" in="SourceAlpha" result="shadowComposite" />
      <feColorMatrix type="matrix" values="0 0 0 0 0  0 0 0 0 0  0 0 0 0 0  0 0 0 0.349019607843137 0  " in="shadowComposite" />
    </filter>
    <g id="widget4044">
      <path d="M 864.5 557  A 3.5 3.5 0 0 1 868 553.5 L 1068 553.5  A 3.5 3.5 0 0 1 1071.5 557 L 1071.5 612  A 3.5 3.5 0 0 1 1068 615.5 L 868 615.5  A 3.5 3.5 0 0 1 864.5 612 L 864.5 557  Z " fill-rule="nonzero" fill="#ffffff" stroke="none" fill-opacity="0" />
      <path d="M 864 557  A 4 4 0 0 1 868 553 L 1068 553  A 4 4 0 0 1 1072 557 L 1072 612  A 4 4 0 0 1 1068 616 L 868 616  A 4 4 0 0 1 864 612 L 864 557  Z " stroke-width="2" stroke="#1a3e6b" fill="none" />
    </g>
  </defs>
  <g transform="matrix(1 0 0 1 -860 -549 )">
    <use xlink:href="#widget4044" filter="url(#filter4043)" />
    <use xlink:href="#widget4044" />
  </g>
</svg>