<?xml version="1.0" encoding="utf-8"?>
<svg version="1.1" xmlns:xlink="http://www.w3.org/1999/xlink" width="220px" height="139px" xmlns="http://www.w3.org/2000/svg">
  <defs>
    <filter x="860px" y="412px" width="220px" height="139px" filterUnits="userSpaceOnUse" id="filter4838">
      <feOffset dx="2" dy="2" in="SourceAlpha" result="shadowOffsetInner" />
      <feGaussianBlur stdDeviation="2.5" in="shadowOffsetInner" result="shadowGaussian" />
      <feComposite in2="shadowGaussian" operator="atop" in="SourceAlpha" result="shadowComposite" />
      <feColorMatrix type="matrix" values="0 0 0 0 0  0 0 0 0 0  0 0 0 0 0  0 0 0 0.349019607843137 0  " in="shadowComposite" />
    </filter>
    <g id="widget4839">
      <path d="M 864.5 420  A 3.5 3.5 0 0 1 868 416.5 L 1068 416.5  A 3.5 3.5 0 0 1 1071.5 420 L 1071.5 539  A 3.5 3.5 0 0 1 1068 542.5 L 868 542.5  A 3.5 3.5 0 0 1 864.5 539 L 864.5 420  Z " fill-rule="nonzero" fill="#ffffff" stroke="none" fill-opacity="0" />
      <path d="M 864 420  A 4 4 0 0 1 868 416 L 1068 416  A 4 4 0 0 1 1072 420 L 1072 539  A 4 4 0 0 1 1068 543 L 868 543  A 4 4 0 0 1 864 539 L 864 420  Z " stroke-width="2" stroke="#1a3e6b" fill="none" />
    </g>
  </defs>
  <g transform="matrix(1 0 0 1 -860 -412 )">
    <use xlink:href="#widget4839" filter="url(#filter4838)" />
    <use xlink:href="#widget4839" />
  </g>
</svg>