<?xml version="1.0" encoding="utf-8"?>
<svg version="1.1" xmlns:xlink="http://www.w3.org/1999/xlink" width="110px" height="75px" xmlns="http://www.w3.org/2000/svg">
  <defs>
    <filter x="541px" y="624px" width="110px" height="75px" filterUnits="userSpaceOnUse" id="filter362">
      <feOffset dx="2" dy="2" in="SourceAlpha" result="shadowOffsetInner" />
      <feGaussianBlur stdDeviation="2.5" in="shadowOffsetInner" result="shadowGaussian" />
      <feComposite in2="shadowGaussian" operator="atop" in="SourceAlpha" result="shadowComposite" />
      <feColorMatrix type="matrix" values="0 0 0 0 0  0 0 0 0 0  0 0 0 0 0  0 0 0 0.349019607843137 0  " in="shadowComposite" />
    </filter>
    <g id="widget363">
      <path d="M 545.5 632  A 3.5 3.5 0 0 1 549 628.5 L 639 628.5  A 3.5 3.5 0 0 1 642.5 632 L 642.5 687  A 3.5 3.5 0 0 1 639 690.5 L 549 690.5  A 3.5 3.5 0 0 1 545.5 687 L 545.5 632  Z " fill-rule="nonzero" fill="#ffffff" stroke="none" fill-opacity="0" />
      <path d="M 545 632  A 4 4 0 0 1 549 628 L 639 628  A 4 4 0 0 1 643 632 L 643 687  A 4 4 0 0 1 639 691 L 549 691  A 4 4 0 0 1 545 687 L 545 632  Z " stroke-width="2" stroke="#1a3e6b" fill="none" />
    </g>
  </defs>
  <g transform="matrix(1 0 0 1 -541 -624 )">
    <use xlink:href="#widget363" filter="url(#filter362)" />
    <use xlink:href="#widget363" />
  </g>
</svg>