<?xml version="1.0" encoding="utf-8"?>
<svg version="1.1" xmlns:xlink="http://www.w3.org/1999/xlink" width="220px" height="75px" xmlns="http://www.w3.org/2000/svg">
  <defs>
    <filter x="871px" y="549px" width="220px" height="75px" filterUnits="userSpaceOnUse" id="filter380">
      <feOffset dx="2" dy="2" in="SourceAlpha" result="shadowOffsetInner" />
      <feGaussianBlur stdDeviation="2.5" in="shadowOffsetInner" result="shadowGaussian" />
      <feComposite in2="shadowGaussian" operator="atop" in="SourceAlpha" result="shadowComposite" />
      <feColorMatrix type="matrix" values="0 0 0 0 0  0 0 0 0 0  0 0 0 0 0  0 0 0 0.349019607843137 0  " in="shadowComposite" />
    </filter>
    <g id="widget381">
      <path d="M 875.5 557  A 3.5 3.5 0 0 1 879 553.5 L 1079 553.5  A 3.5 3.5 0 0 1 1082.5 557 L 1082.5 612  A 3.5 3.5 0 0 1 1079 615.5 L 879 615.5  A 3.5 3.5 0 0 1 875.5 612 L 875.5 557  Z " fill-rule="nonzero" fill="#ffffff" stroke="none" fill-opacity="0" />
      <path d="M 875 557  A 4 4 0 0 1 879 553 L 1079 553  A 4 4 0 0 1 1083 557 L 1083 612  A 4 4 0 0 1 1079 616 L 879 616  A 4 4 0 0 1 875 612 L 875 557  Z " stroke-width="2" stroke="#1a3e6b" fill="none" />
    </g>
  </defs>
  <g transform="matrix(1 0 0 1 -871 -549 )">
    <use xlink:href="#widget381" filter="url(#filter380)" />
    <use xlink:href="#widget381" />
  </g>
</svg>