<?xml version="1.0" encoding="utf-8"?>
<svg version="1.1" xmlns:xlink="http://www.w3.org/1999/xlink" width="220px" height="139px" xmlns="http://www.w3.org/2000/svg">
  <defs>
    <filter x="871px" y="412px" width="220px" height="139px" filterUnits="userSpaceOnUse" id="filter392">
      <feOffset dx="2" dy="2" in="SourceAlpha" result="shadowOffsetInner" />
      <feGaussianBlur stdDeviation="2.5" in="shadowOffsetInner" result="shadowGaussian" />
      <feComposite in2="shadowGaussian" operator="atop" in="SourceAlpha" result="shadowComposite" />
      <feColorMatrix type="matrix" values="0 0 0 0 0  0 0 0 0 0  0 0 0 0 0  0 0 0 0.349019607843137 0  " in="shadowComposite" />
    </filter>
    <g id="widget393">
      <path d="M 875.5 420  A 3.5 3.5 0 0 1 879 416.5 L 1079 416.5  A 3.5 3.5 0 0 1 1082.5 420 L 1082.5 539  A 3.5 3.5 0 0 1 1079 542.5 L 879 542.5  A 3.5 3.5 0 0 1 875.5 539 L 875.5 420  Z " fill-rule="nonzero" fill="#ffffff" stroke="none" fill-opacity="0" />
      <path d="M 875 420  A 4 4 0 0 1 879 416 L 1079 416  A 4 4 0 0 1 1083 420 L 1083 539  A 4 4 0 0 1 1079 543 L 879 543  A 4 4 0 0 1 875 539 L 875 420  Z " stroke-width="2" stroke="#1a3e6b" fill="none" />
    </g>
  </defs>
  <g transform="matrix(1 0 0 1 -871 -412 )">
    <use xlink:href="#widget393" filter="url(#filter392)" />
    <use xlink:href="#widget393" />
  </g>
</svg>